<?xml version="1.0" standalone="no"?><!DOCTYPE svg PUBLIC "-//W3C//DTD SVG 1.1//EN" "http://www.w3.org/Graphics/SVG/1.1/DTD/svg11.dtd"><svg t="1539158644823" class="icon" style="" viewBox="0 0 1024 1024" version="1.1" xmlns="http://www.w3.org/2000/svg" p-id="2037" xmlns:xlink="http://www.w3.org/1999/xlink" width="200" height="200"><defs><style type="text/css"></style></defs><path d="M128.012451 927.969911A3 3 10800 1 0 320.006225 927.969911 3 3 10800 1 0 128.012451 927.969911zM767.991699 927.969911A3 3 10800 1 0 959.985474 927.969911 3 3 10800 1 0 767.991699 927.969911zM959.985474 511.983399 959.985474 127.99585 128.012451 127.99585C128.012451 57.310142 70.702309 0 0.016601 0l0 63.997925c35.294856 0 63.997925 28.703069 63.997925 63.997925l48.062442 412.050639C82.797917 563.501728 64.014526 599.53256 64.014526 639.979249c0 70.685708 57.310142 127.99585 127.99585 127.99585l767.975098 0 0-63.997925L192.010376 703.977174c-35.358853 0-63.997925-28.639071-63.997925-63.997925 0-0.223993 0-0.447985 0.031999-0.671978L959.985474 511.983399z" p-id="2038"></path></svg>