<?xml version="1.0" standalone="no"?><!DOCTYPE svg PUBLIC "-//W3C//DTD SVG 1.1//EN" "http://www.w3.org/Graphics/SVG/1.1/DTD/svg11.dtd"><svg t="1539158920028" class="icon" style="" viewBox="0 0 1024 1024" version="1.1" xmlns="http://www.w3.org/2000/svg" p-id="1317" xmlns:xlink="http://www.w3.org/1999/xlink" width="200" height="200"><defs><style type="text/css"></style></defs><path d="M512 956.1088c0 0-341.504-371.2-341.504-555.144533S323.413333 67.8912 512 67.8912s341.504 149.128533 341.504 333.073067C853.504 584.9088 512 956.1088 512 956.1088zM512 178.926933c-125.713067 0-227.669333 99.4304-227.669333 222.071467 0 122.606933 101.922133 222.037333 227.669333 222.037333 125.713067 0 227.669333-99.4304 227.669333-222.037333C739.669333 278.357333 637.713067 178.926933 512 178.926933zM512 512c-62.8736 0-113.834667-49.698133-113.834667-111.0016 0-61.3376 50.961067-111.035733 113.834667-111.035733s113.834667 49.698133 113.834667 111.035733C625.834667 462.301867 574.8736 512 512 512z" p-id="1318"></path></svg>