<?xml version="1.0" standalone="no"?><!DOCTYPE svg PUBLIC "-//W3C//DTD SVG 1.1//EN" "http://www.w3.org/Graphics/SVG/1.1/DTD/svg11.dtd"><svg t="1539158987497" class="icon" style="" viewBox="0 0 1024 1024" version="1.1" xmlns="http://www.w3.org/2000/svg" p-id="1549" xmlns:xlink="http://www.w3.org/1999/xlink" width="200" height="200"><defs><style type="text/css"></style></defs><path d="M728.985012 570.254259c47.455462-52.075777 76.300821-121.333537 76.300821-197.300809 0-161.853108-131.241265-293.094373-293.202746-293.094373-161.961481 0-293.09076 131.241265-293.09076 293.094373 0 75.967272 28.845359 145.225032 76.300821 197.300809C166.031501 645.122143 79.161876 784.955002 79.161876 945.041625l0 0.662281 54.170994 0 0-0.662281c0-51.087171 10.016101-100.741407 29.725591-147.42501 19.160399-45.143498 46.354871-85.548675 81.145107-120.450897 27.745972-27.745972 59.127266-50.650066 93.476784-68.595479 48.666834 36.11239 109.004269 57.472767 174.402736 57.472767 65.28889 0 125.628732-21.359172 174.401532-57.472767 34.461504 17.83704 65.730812 40.736318 93.589974 68.595479 34.79144 34.79144 62.09549 75.307399 81.145107 120.450897 19.704673 46.683603 29.726795 96.23067 29.726795 147.42501l0 0.662281 54.170994 0 0-0.662281C945.004297 784.955002 858.134672 645.235333 728.985012 570.254259L728.985012 570.254259 728.985012 570.254259zM512.083086 611.983998c-32.259118 0-63.640411-6.274814-93.03727-18.719681-28.403437-12.000536-54.059008-29.284873-76.080462-51.194341-22.020249-22.021454-39.193804-47.563835-51.199157-76.080462-12.44005-29.398063-18.714864-60.670983-18.714864-93.03727 0-32.261526 6.274814-63.639207 18.714864-93.036066 12.005353-28.408253 29.290893-54.063825 51.199157-76.081666 22.021454-22.020249 47.563835-39.197417 76.080462-51.197953 29.396858-12.441254 60.666167-18.718476 93.03727-18.718476 32.261526 0 63.639207 6.278426 93.036066 18.718476 28.408253 12.000536 54.060212 29.284873 76.080462 51.197953 22.021454 22.017841 39.199825 47.565039 51.199157 76.081666 12.441254 29.396858 18.720885 60.666167 18.720885 93.036066 0 32.259118-6.27963 63.639207-18.720885 93.03727-11.999332 28.403437-29.283669 54.059008-51.199157 76.080462-22.020249 22.015433-47.563835 39.193804-76.080462 51.194341C575.722293 605.709184 544.345816 611.983998 512.083086 611.983998L512.083086 611.983998 512.083086 611.983998zM512.083086 611.983998" p-id="1550"></path></svg>