<?xml version="1.0" standalone="no"?><!DOCTYPE svg PUBLIC "-//W3C//DTD SVG 1.1//EN" "http://www.w3.org/Graphics/SVG/1.1/DTD/svg11.dtd"><svg t="1539158952708" class="icon" style="" viewBox="0 0 1024 1024" version="1.1" xmlns="http://www.w3.org/2000/svg" p-id="1433" xmlns:xlink="http://www.w3.org/1999/xlink" width="200" height="200"><defs><style type="text/css"></style></defs><path d="M323.968 320.992l376.096 0C773.6 318.144 832 262.112 832 193.056c0-70.88-61.536-128.064-137.856-128.064-41.216 0-79.392 16-103.392 44.032L512 203.36l-78.784-94.336c-24-28-62.144-44.032-103.392-44.032C253.536 64.992 192 122.176 192 193.056 192 262.112 250.4 318.144 323.968 320.992zM651.68 155.904c6.752-7.424 21.536-17.728 42.464-17.728 32.608 0 59.072 24.576 59.072 54.88s-26.464 54.88-59.072 54.88l-119.392 0L651.68 155.904zM329.856 138.176c20.928 0 35.68 10.304 42.464 17.728l77.536 92.032-120 0c-32.608 0-59.072-24.576-59.072-54.88S297.248 138.176 329.856 138.176zM437.504 352 186.496 352C154.208 352 128 380.64 128 416l0 160c0 35.36 26.208 64 58.496 64l250.976 0c32.32 0 58.496-28.64 58.496-64l0-160C496 380.64 469.792 352 437.504 352zM837.504 352l-250.976 0c-32.32 0-58.496 28.64-58.496 64l0 160c0 35.36 26.208 64 58.496 64l250.976 0C869.792 640 896 611.36 896 576l0-160C896 380.64 869.792 352 837.504 352zM437.504 672 186.496 672C154.208 672 128 700.64 128 736l0 160c0 35.36 26.208 64 58.496 64l250.976 0c32.32 0 58.496-28.64 58.496-64l0-160C496 700.64 469.792 672 437.504 672zM837.504 672l-250.976 0c-32.32 0-58.496 28.64-58.496 64l0 160c0 35.36 26.208 64 58.496 64l250.976 0C869.792 960 896 931.36 896 896l0-160C896 700.64 869.792 672 837.504 672z" p-id="1434"></path></svg>